<?xml version="1.0" encoding="UTF-8"?>
<svg version="1.1" xmlns="http://www.w3.org/2000/svg" width="1280" height="1280">
<path d="M0 0 C0.75957001 0.02172272 1.51914001 0.04344543 2.30172729 0.06582642 C87.41133718 2.65773559 180.36786419 23.79352119 254.5 72.8125 C255.40878906 73.39902344 256.31757812 73.98554688 257.25390625 74.58984375 C271.12271034 83.62026346 283.9338459 93.54947806 295.77392578 105.12744141 C296.99996208 106.32434417 298.23940176 107.50758488 299.48779297 108.68115234 C300.45096436 109.60275146 300.45096436 109.60275146 301.43359375 110.54296875 C302.31422485 111.37477661 302.31422485 111.37477661 303.21264648 112.22338867 C304.5 113.8125 304.5 113.8125 304.5 116.8125 C298.94856694 115.23660932 294.25081733 112.61368179 289.25 109.8125 C278.79260083 104.03104961 268.25320695 98.41830448 257.68408203 92.84460449 C249.96660854 88.77435371 242.25570476 84.69476474 234.5859375 80.53515625 C233.33285075 79.85716721 232.07975842 79.17918848 230.82666016 78.5012207 C228.53358301 77.26012225 226.24504988 76.01172293 223.95849609 74.75854492 C203.98864153 63.94706613 183.2396576 58.07105631 161.00390625 53.9296875 C159.99047181 53.74039736 159.99047181 53.74039736 158.95656395 53.54728317 C142.92392596 50.57047933 126.80959735 48.23703474 110.64770508 46.08740234 C107.43088962 45.65852608 104.21683227 45.21417404 101.00415039 44.75537109 C83.14599948 42.20949859 65.55418645 40.38518613 47.49609375 40.421875 C46.73646143 40.42264668 45.97682911 40.42341835 45.19417763 40.42421341 C-10.5783635 40.65599515 -68.74954377 62.78410507 -117.5625 88.78173828 C-118.94913268 89.51943526 -120.34030313 90.24862761 -121.734375 90.97216797 C-156.80031913 109.19986973 -187.49106008 134.55795951 -215.2746582 162.45678711 C-216.82584727 164.01339389 -218.38239392 165.56450171 -219.93945312 167.11523438 C-225.33586167 172.50736095 -230.58794353 177.97003044 -235.5 183.8125 C-236.03423584 184.44003174 -236.56847168 185.06756348 -237.11889648 185.71411133 C-257.61803517 209.91699167 -275.27206255 235.99736729 -290.5 263.8125 C-290.98533203 264.68745117 -291.47066406 265.56240234 -291.97070312 266.46386719 C-335.99471084 346.18850304 -350.60670938 439.51184022 -326.5 558.8125 C-326.22430176 559.89047852 -325.94860352 560.96845703 -325.66455078 562.07910156 C-307.01323134 633.94186612 -270.69849923 709.1959245 -211.328125 756.54296875 C-208.45759026 758.84653323 -205.67014786 761.23079548 -202.875 763.625 C-156.35751439 802.31990459 -95.84422167 828.42836898 -35.5 833.8125 C-34.45972656 833.92207031 -33.41945313 834.03164063 -32.34765625 834.14453125 C-12.78723632 835.92275124 7.03153127 835.1917697 26.5 832.8125 C27.65894775 832.67569824 27.65894775 832.67569824 28.84130859 832.53613281 C92.17220682 824.75122619 152.68935422 793.65934968 199.36328125 750.765625 C201.26912347 749.02353887 203.21503302 747.35295187 205.1875 745.6875 C214.63808967 737.4278383 223.57932931 728.39508143 231.33984375 718.53125 C233.30587517 716.05682348 235.34715775 713.66811247 237.42456055 711.28710938 C268.03576098 676.00749895 288.10118825 633.18068967 301.5 588.8125 C302.82 588.8125 304.14 588.8125 305.5 588.8125 C307.00544693 600.73882878 302.5817737 611.38618065 298.8125 622.5 C298.12775392 624.55636517 297.44334984 626.61284425 296.75927734 628.66943359 C288.93742192 652.00161027 280.18797863 675.02881658 269.68505859 697.29833984 C268.83807689 699.09525323 267.99802482 700.89543952 267.16259766 702.69775391 C249.82121216 740.09736178 228.11660344 775.10775108 200.5 805.8125 C199.7260791 806.67319092 199.7260791 806.67319092 198.93652344 807.55126953 C189.65172636 817.82939252 180.22333582 827.87272165 169.359375 836.51171875 C166.84328681 838.53627605 164.3993369 840.62398013 161.96557617 842.74609375 C148.58477571 854.34621056 133.76493348 863.89637609 118.5 872.8125 C117.77200195 873.23772949 117.04400391 873.66295898 116.29394531 874.10107422 C38.42463055 919.20977972 -55.02223063 935.78740571 -190.5 912.8125 C-244.98148382 898.00834843 -296.23517627 871.77700173 -340.5 836.8125 C-341.7375 835.84957031 -341.7375 835.84957031 -343 834.8671875 C-353.02022188 826.98944727 -362.89255676 818.7243297 -371.7578125 809.5546875 C-373.53337195 807.77912805 -375.38968202 806.17643156 -377.3125 804.5625 C-382.34675975 800.22771665 -386.69974023 795.27486664 -391.12402344 790.33691406 C-392.41477501 788.90691888 -393.72624474 787.4957018 -395.0390625 786.0859375 C-459.53579433 716.67516896 -498.13939293 611.16518856 -501.02148438 493.51953125 C-500.99869597 489.59748328 -501.01228809 485.67652203 -501.0352459 481.75451088 C-501.16946304 454.65209086 -498.91402883 428.01359683 -493.375 401.4375 C-493.23171265 400.73766998 -493.08842529 400.03783997 -492.9407959 399.31680298 C-477.18383198 322.79585403 -441.30854855 251.55571632 -392.5 190.8125 C-391.74976563 189.87792969 -390.99953125 188.94335938 -390.2265625 187.98046875 C-388.00422221 185.24065211 -385.75955036 182.52171213 -383.5 179.8125 C-383.0663916 179.29252441 -382.6327832 178.77254883 -382.18603516 178.23681641 C-370.33339651 164.07798934 -357.59362735 150.8211951 -344.5625 137.75 C-344.07204193 137.2568631 -343.58158386 136.7637262 -343.07626343 136.25564575 C-337.39753894 130.55336056 -331.62914452 125.03089796 -325.5 119.8125 C-324.32008679 118.77908553 -323.14167855 117.74395001 -321.96484375 116.70703125 C-295.91970051 93.90106055 -267.78593143 72.68516567 -237.5 55.8125 C-236.69900879 55.36487305 -235.89801758 54.91724609 -235.07275391 54.45605469 C-198.63945701 34.30718472 -158.85210551 22.19707972 -118.5980835 12.33203125 C-116.69077412 11.85973983 -114.78773956 11.37026821 -112.88525391 10.87890625 C-86.67773044 4.15366446 -59.38849136 2.86628592 -32.5 0.8125 C-31.69346985 0.7490036 -30.8869397 0.6855072 -30.05596924 0.62008667 C-20.01957738 -0.16052159 -10.05597638 -0.30018048 0 0 Z " fill="#FFFFFF" transform="translate(644.5,168.1875)"/>
<path d="M0 0 C0.75609558 0.05905518 1.51219116 0.11811035 2.29119873 0.17895508 C84.51562133 6.7987271 162.73625627 36.46108247 228 87 C229.34964844 88.04414063 229.34964844 88.04414063 230.7265625 89.109375 C248.61146276 103.20756999 266.3159928 118.59125797 281.16796875 135.890625 C283.15311587 138.17629546 285.2003983 140.39701378 287.25 142.625 C292.3068307 148.23799651 296.95675868 154.12720023 301.55419922 160.1171875 C302.51603689 161.36975287 303.48119898 162.61977262 304.44970703 163.8671875 C352.91477356 226.34839664 390.89104218 312.31984261 391.17700195 392.58618164 C391.18685875 393.81534302 391.18685875 393.81534302 391.19691467 395.06933594 C391.21651882 397.76627739 391.2282962 400.46316283 391.23828125 403.16015625 C391.24235678 404.09602507 391.2464323 405.03189388 391.25063133 405.99612236 C391.2714612 410.97259163 391.28576301 415.94903377 391.29516602 420.92553711 C391.30393218 424.97582481 391.32458456 429.02575887 391.35668945 433.07592773 C391.54271095 457.08286913 391.04762044 480.28481772 387 504 C386.78599045 505.31978348 386.78599045 505.31978348 386.56765747 506.66622925 C385.77827848 511.53112404 384.87091872 516.35980545 383.875 521.1875 C383.73171265 521.89104614 383.58842529 522.59459229 383.4407959 523.31945801 C373.70136161 570.84212968 356.61536078 615.63585028 335 659 C334.61811523 659.76779785 334.23623047 660.5355957 333.84277344 661.32666016 C323.56134995 681.80969699 311.32695309 701.3730475 298 720 C297.42362793 720.80695312 296.84725586 721.61390625 296.25341797 722.4453125 C289.67326711 731.61405123 282.9257626 740.55295351 275.5234375 749.07421875 C273.05318301 751.93833734 270.67802228 754.86165224 268.3125 757.8125 C265.11831705 761.74117422 261.78945732 765.37089272 258.1171875 768.85546875 C256.23812475 770.75879984 254.5001109 772.71043807 252.75390625 774.734375 C249.02844936 779.0240999 245.090406 783.05789914 241.0625 787.0625 C240.39798828 787.73087891 239.73347656 788.39925781 239.04882812 789.08789062 C235.08949846 793.03953972 231.01945102 796.80309309 226.78393555 800.45678711 C224.60451843 802.34211564 222.49179391 804.29485217 220.375 806.25 C214.79273278 811.28082745 208.91697545 815.87388348 202.97314453 820.46386719 C200.91507256 822.06611773 198.87642918 823.69085589 196.83984375 825.3203125 C134.1068761 875.25868567 58.09336181 908.46674427 -21.1875 919.875 C-21.8564328 919.97259613 -22.5253656 920.07019226 -23.21456909 920.17074585 C-46.36416412 923.49307677 -69.51038886 924.37891189 -92.875 924.3125 C-94.22489409 924.31057485 -95.5747883 924.30873451 -96.92468262 924.30697632 C-117.75583368 924.26758523 -138.32650855 923.67352116 -159 921 C-159.66962769 920.91514343 -160.33925537 920.83028687 -161.0291748 920.74285889 C-225.75252324 912.51343627 -286.78357291 892.93462425 -343.578125 860.50390625 C-347.02759836 858.53822564 -350.5022046 856.62197992 -353.984375 854.71484375 C-375.5956056 842.84068497 -393.81779344 830.83837683 -410 812 C-406.28503155 812 -404.5199534 813.47976558 -401.47607422 815.453125 C-396.49078897 818.56757652 -391.25022917 821.24122187 -386.0625 824 C-384.82091003 824.66298573 -383.57937447 825.32607338 -382.33789062 825.98925781 C-373.22213572 830.85116988 -364.06429184 835.63013759 -354.87744141 840.35644531 C-350.14628548 842.80013376 -345.45458362 845.27958131 -340.83984375 847.9375 C-299.07062215 871.98969959 -249.24351119 877.8874858 -202.3671875 885.3984375 C-201.45291489 885.54603012 -200.53864227 885.69362274 -199.59666443 885.84568787 C-191.37334363 887.14994255 -183.27379257 888.14922244 -174.94140625 888.203125 C-174.20361435 888.21018463 -173.46582245 888.21724426 -172.70567322 888.22451782 C-136.30093972 888.49288842 -101.73766168 883.1553145 -67 872 C-65.68829834 871.58065186 -65.68829834 871.58065186 -64.35009766 871.15283203 C-51.48564439 866.98314264 -39.20246427 861.81321173 -27 856 C-26.19626953 855.62004883 -25.39253906 855.24009766 -24.56445312 854.84863281 C-11.25433247 848.51533205 1.4530497 841.26700847 14.10742188 833.71972656 C16.81834733 832.10799809 19.53968917 830.51585562 22.265625 828.9296875 C39.00587807 819.13003979 54.79964898 808.0415612 70 796 C71.24716797 795.02546875 71.24716797 795.02546875 72.51953125 794.03125 C94.69827646 776.54622954 115.50575744 757.22629177 133 735 C134.04386058 733.70930351 135.088166 732.41896672 136.1328125 731.12890625 C185.28850071 669.84171172 218.57056531 586.22180931 227 508 C227.08400055 507.22221191 227.1680011 506.44442383 227.25454712 505.64306641 C228.76827667 491.22563119 229.34468207 476.91476458 229.31567383 462.42138672 C229.31250814 459.13345266 229.33612751 455.84641824 229.36132812 452.55859375 C229.42200328 432.70811994 227.85520516 413.00343396 222.8125 393.75 C222.50989258 392.55149414 222.20728516 391.35298828 221.89550781 390.11816406 C220.94951943 386.40682991 219.97749299 382.70314726 219 379 C218.69433105 377.81921875 218.38866211 376.6384375 218.07373047 375.421875 C196.52729634 292.47895106 158.93214749 210.67078244 88 159 C87.44135254 158.58943359 86.88270508 158.17886719 86.30712891 157.75585938 C22.60726941 111.20519952 -67.79313484 84.37939371 -146.57128906 96.39208984 C-174.0213403 101.08010516 -202.40093683 110.10620072 -228 121 C-228.82757813 121.34595215 -229.65515625 121.6919043 -230.5078125 122.04833984 C-255.15867863 132.42348724 -277.38277243 147.02473778 -298 164 C-298.54849609 164.45084961 -299.09699219 164.90169922 -299.66210938 165.36621094 C-315.78603648 178.68310032 -331.95222242 192.88000954 -344.9140625 209.359375 C-347.09708995 212.12290787 -349.38652976 214.77165098 -351.6875 217.4375 C-361.63161232 229.4135362 -370.26030152 242.28043995 -377.9375 255.8125 C-378.44450439 256.70557861 -378.95150879 257.59865723 -379.47387695 258.51879883 C-381.02948989 261.32358907 -382.52676995 264.15108145 -384 267 C-384.77682129 268.49672241 -384.77682129 268.49672241 -385.56933594 270.02368164 C-391.72315765 282.52578005 -396.08708248 295.74377937 -400.69360352 308.87286377 C-402.06258343 312.76974774 -403.44123146 316.66322008 -404.81928444 320.55690289 C-405.88808561 323.57694525 -406.95468384 326.59771838 -408.01693726 329.62007141 C-408.39468292 330.69266708 -408.77242859 331.76526276 -409.16162109 332.87036133 C-409.4935849 333.81551102 -409.82554871 334.76066071 -410.16757202 335.73445129 C-411 338 -411 338 -412 340 C-412.99 340 -413.98 340 -415 340 C-417.78530421 334.42939158 -414.35778298 326.14586976 -412.515625 320.56640625 C-412.1381739 319.39230698 -412.1381739 319.39230698 -411.75309753 318.19448853 C-410.9293499 315.64688943 -410.09106293 313.10443131 -409.25 310.5625 C-408.9616629 309.68373199 -408.67332581 308.80496399 -408.37625122 307.89956665 C-399.40900855 280.61496829 -389.0526766 254.07305041 -377 228 C-376.57654297 227.06945801 -376.15308594 226.13891602 -375.71679688 225.18017578 C-369.25850874 210.99190014 -361.84740015 197.46375267 -354 184 C-353.5889502 183.28618164 -353.17790039 182.57236328 -352.75439453 181.83691406 C-340.99746563 161.42423317 -327.25075996 141.5829501 -311.16015625 124.3359375 C-309.34439979 122.37242509 -307.59851472 120.37495513 -305.85546875 118.34765625 C-295.3136473 106.26775425 -283.72304375 94.7654941 -271 85 C-269.87718617 84.08050101 -268.7576217 83.15702564 -267.640625 82.23046875 C-249.72771281 67.44757192 -229.94345579 55.61738578 -209.4375 44.8125 C-208.54071533 44.33748047 -207.64393066 43.86246094 -206.7199707 43.37304688 C-193.34524693 36.4201565 -179.81076781 31.01236851 -165.390625 26.71484375 C-163.84689064 26.24682358 -162.30341909 25.7779358 -160.76019287 25.3082428 C-156.73959977 24.0870606 -152.71558846 22.8775653 -148.69067383 21.67071533 C-144.64835888 20.45634278 -140.60947257 19.23067638 -136.5703125 18.00585938 C-131.88463784 16.58512509 -127.19811707 15.16759153 -122.50650024 13.7665863 C-113.30132122 11.01820083 -113.30132122 11.01820083 -104.15380859 8.08422852 C-91.30156421 3.8550972 -78.57906064 2.23522317 -65.125 1.0625 C-63.99304199 0.95882111 -62.86108398 0.85514221 -61.69482422 0.74832153 C-41.01258233 -1.12071964 -20.70263502 -1.61754317 0 0 Z " fill="#FFFFFF" transform="translate(737,229)"/>
</svg>
